<?xml version="1.0" standalone="no"?>
<!DOCTYPE svg PUBLIC "-//W3C//DTD SVG 20010904//EN"
 "http://www.w3.org/TR/2001/REC-SVG-20010904/DTD/svg10.dtd">
<svg version="1.0" xmlns="http://www.w3.org/2000/svg"
 width="573.000000pt" height="573.000000pt" viewBox="0 0 573.000000 573.000000"
 preserveAspectRatio="xMidYMid meet">

<g transform="translate(0.000000,573.000000) scale(0.100000,-0.100000)"
fill="#000000" stroke="none">
<path d="M4501 3772 c-10 -18 -280 -258 -431 -382 l-43 -35 102 -270 c56 -148
120 -319 141 -380 22 -60 53 -146 70 -190 41 -105 71 -190 126 -355 58 -177
55 -171 65 -135 5 17 9 419 9 895 1 753 -1 865 -14 868 -8 2 -19 -5 -25 -16z"/>
</g>
</svg>
